<?xml version="1.0" encoding="utf-8"?>
<!-- Generator: Adobe Illustrator 24.3.0, SVG Export Plug-In . SVG Version: 6.00 Build 0)  -->
<svg version="1.1" id="Layer_1" xmlns="http://www.w3.org/2000/svg" xmlns:xlink="http://www.w3.org/1999/xlink" x="0px" y="0px"
	 viewBox="0 0 384 512" style="enable-background:new 0 0 384 512;" xml:space="preserve">
<style type="text/css">
	.st0{fill:#F1C900;}
</style>
<path class="st0" d="M264.3,371.6c8.7-28.8,26.7-53.4,44.4-77.9l0,0c4.7-6.4,9.4-12.8,13.9-19.3c17.9-25.7,28.4-56.9,28.4-90.6
	c0-87.9-71.2-159.1-159-159.1S33,95.9,33,183.7c0,33.7,10.5,65,28.4,90.6c4.5,6.5,9.2,12.9,13.9,19.3l0,0
	c17.9,24.5,35.9,49.1,44.4,77.9L264.3,371.6L264.3,371.6z M192,487.3c39.9,0,72.3-32.3,72.3-72.3v-14.5H119.7V415
	C119.7,454.9,152.1,487.3,192,487.3z M119.7,183.7c0,7.9-6.5,14.5-14.5,14.5s-14.5-6.5-14.5-14.5c0-55.9,45.3-101.2,101.2-101.2
	c7.9,0,14.5,6.5,14.5,14.5s-6.5,14.5-14.5,14.5C152.1,111.5,119.7,143.8,119.7,183.7z"/>
</svg>
